<svg width="76" height="76" viewBox="0 0 76 76" fill="none" xmlns="http://www.w3.org/2000/svg">
<path opacity="0.22" d="M30.8201 43.7111C40.7636 43.7111 48.8244 35.6504 48.8244 25.7069C48.8244 15.7634 40.7636 7.70264 30.8201 7.70264C20.8767 7.70264 12.8159 15.7634 12.8159 25.7069C12.8159 35.6504 20.8767 43.7111 30.8201 43.7111Z" fill="#FE2C54"/>
<path d="M3.66707 56.6075C3.66707 56.6075 1.85331 46.6452 4.28055 38.8167C4.73399 33.8021 1.31985 29.4811 4.46726 25.7069C7.61466 21.9327 19.0307 16.2647 29.5265 16.3714C32.0338 23.3063 29.5265 25.7069 29.5265 25.7069C29.5265 25.7069 45.0368 37.443 49.5312 42.6175C56.9863 42.3108 71.7365 40.4837 72.2032 54.0202C68.6024 59.6482 39.8623 61.4753 30.5934 58.648C21.3246 55.8207 3.66707 56.6075 3.66707 56.6075Z" stroke="#05060A" stroke-width="2" stroke-linecap="round" stroke-linejoin="round"/>
<path d="M3.66706 56.6075C2.68621 59.6603 2.12538 62.8324 2 66.0364C2 68.3169 3.66706 68.9304 7.7747 68.9304H18.5772L22.0714 63.9826C22.0714 63.9826 36.9816 64.436 36.9816 68.9971C47.4641 68.9971 63.6545 67.9569 70.4295 65.3429C77.2044 62.729 72.2566 54.0869 72.2566 54.0869" stroke="#05060A" stroke-width="2" stroke-linecap="round" stroke-linejoin="round"/>
<path d="M7.7747 68.9304V65.903" stroke="#05060A" stroke-width="2" stroke-linecap="round" stroke-linejoin="round"/>
<path d="M13.9495 68.9304V65.903" stroke="#05060A" stroke-width="2" stroke-linecap="round" stroke-linejoin="round"/>
<path d="M42.2628 68.8504V65.903" stroke="#05060A" stroke-width="2" stroke-linecap="round" stroke-linejoin="round"/>
<path d="M48.4643 68.5837V65.903" stroke="#05060A" stroke-width="2" stroke-linecap="round" stroke-linejoin="round"/>
<path d="M54.6658 68.1169V65.903" stroke="#05060A" stroke-width="2" stroke-linecap="round" stroke-linejoin="round"/>
<path d="M60.8672 67.4101V64.7294" stroke="#05060A" stroke-width="2" stroke-linecap="round" stroke-linejoin="round"/>
<path d="M67.082 66.2765V62.4355" stroke="#05060A" stroke-width="2" stroke-linecap="round" stroke-linejoin="round"/>
<path d="M29.5265 25.7069L23.9385 29.0944" stroke="#05060A" stroke-width="2" stroke-linecap="round" stroke-linejoin="round"/>
<path d="M36.9416 31.4949L30.8201 38.1498" stroke="#05060A" stroke-width="2" stroke-linecap="round" stroke-linejoin="round"/>
<path d="M43.8365 37.1896L40.4491 44.418" stroke="#05060A" stroke-width="2" stroke-linecap="round" stroke-linejoin="round"/>
<path d="M3.01358 48.2056C3.01358 48.2056 15.3365 45.925 15.3365 56.5675" stroke="#05060A" stroke-width="2" stroke-linecap="round" stroke-linejoin="round"/>
</svg>
