<svg width="76" height="76" viewBox="0 0 76 76" fill="none" xmlns="http://www.w3.org/2000/svg">
<path opacity="0.22" d="M24.5187 57.6314C35.26 57.6314 43.9675 48.9239 43.9675 38.1827C43.9675 27.4414 35.26 18.7339 24.5187 18.7339C13.7775 18.7339 5.07001 27.4414 5.07001 38.1827C5.07001 48.9239 13.7775 57.6314 24.5187 57.6314Z" fill="#FE2C54"/>
<path d="M64.8713 42.3462H67.7526C68.3461 42.35 68.9141 42.5884 69.3324 43.0095C69.7508 43.4305 69.9856 44 69.9856 44.5936V64.4745C69.9818 65.0656 69.7453 65.6313 69.3274 66.0493C68.9094 66.4672 68.3436 66.7037 67.7526 66.7075H64.8713" stroke="#05060A" stroke-width="2" stroke-linecap="round" stroke-linejoin="round"/>
<path d="M58.9502 72.8446H24.7348C23.9667 72.8446 23.2061 72.6933 22.4965 72.3994C21.7869 72.1055 21.1421 71.6746 20.5989 71.1315C20.0558 70.5884 19.625 69.9436 19.331 69.2339C19.0371 68.5243 18.8858 67.7637 18.8858 66.9956V9.84516C18.8858 8.2939 19.502 6.80618 20.5989 5.70927C21.6958 4.61237 23.1836 3.99613 24.7348 3.99613H58.9502C59.7238 3.98853 60.4913 4.1341 61.2084 4.42445C61.9255 4.71481 62.5781 5.14421 63.1285 5.68791C63.6789 6.23161 64.1162 6.87886 64.4153 7.59236C64.7144 8.30586 64.8694 9.0715 64.8712 9.84516V66.9956C64.8694 67.7693 64.7144 68.5349 64.4153 69.2484C64.1162 69.9619 63.6789 70.6092 63.1285 71.1529C62.5781 71.6966 61.9255 72.126 61.2084 72.4163C60.4913 72.7067 59.7238 72.8522 58.9502 72.8446V72.8446Z" stroke="#05060A" stroke-width="2" stroke-linecap="round" stroke-linejoin="round"/>
<path d="M58.7341 42.0724H24.9654V59.4466H58.7341V42.0724Z" stroke="#05060A" stroke-width="2" stroke-linecap="round" stroke-linejoin="round"/>
<path d="M31.9813 47.8494H51.6606" stroke="#05060A" stroke-width="2" stroke-linecap="round" stroke-linejoin="round"/>
<path d="M48.592 47.8494L47.0361 51.6383" stroke="#05060A" stroke-width="2" stroke-linecap="round" stroke-linejoin="round"/>
<path d="M41.8117 18.9046L37.1766 23.5396L41.8117 28.1747L46.4467 23.5396L41.8117 18.9046Z" stroke="#05060A" stroke-width="2" stroke-linecap="round" stroke-linejoin="round"/>
<path d="M29.2873 42.0724V2.19531" stroke="#05060A" stroke-width="2" stroke-linecap="round" stroke-linejoin="round"/>
<path d="M54.3546 42.0724V2.19531" stroke="#05060A" stroke-width="2" stroke-linecap="round" stroke-linejoin="round"/>
<path d="M36.1736 72.8446C36.247 71.3868 36.8778 70.0129 37.9356 69.0071C38.9934 68.0012 40.3973 67.4403 41.8569 67.4403C43.3166 67.4403 44.7205 68.0012 45.7783 69.0071C46.836 70.0129 47.4669 71.3868 47.5403 72.8446" stroke="#05060A" stroke-width="2" stroke-linecap="round" stroke-linejoin="round"/>
<path d="M27.2128 32.8523H31.3474" stroke="#05060A" stroke-width="2" stroke-linecap="round" stroke-linejoin="round"/>
<path d="M52.2944 32.8523H56.4291" stroke="#05060A" stroke-width="2" stroke-linecap="round" stroke-linejoin="round"/>
<path d="M64.8425 51.6383H70" stroke="#05060A" stroke-width="2" stroke-linecap="round" stroke-linejoin="round"/>
<path d="M18.8859 42.3462H15.8893C15.2958 42.35 14.7278 42.5884 14.3095 43.0095C13.8911 43.4305 13.6563 44 13.6563 44.5936V64.4745C13.6601 65.0656 13.8966 65.6313 14.3145 66.0493C14.7325 66.4672 15.2983 66.7037 15.8893 66.7075H18.7706" stroke="#05060A" stroke-width="2" stroke-linecap="round" stroke-linejoin="round"/>
<path d="M18.857 51.6383H13.6995" stroke="#05060A" stroke-width="2" stroke-linecap="round" stroke-linejoin="round"/>
<path d="M18.8858 12.6832H64.8136" stroke="#05060A" stroke-width="2" stroke-linecap="round" stroke-linejoin="round"/>
</svg>
