<svg width="283" height="40" viewBox="0 0 283 40" fill="none" xmlns="http://www.w3.org/2000/svg">
<g clip-path="url(#clip0_464_10217)">
<path d="M8.45538 18.4697H1.53554C1.10305 18.4697 0.778687 18.1003 0.778687 17.6782C0.778687 17.256 1.10305 16.8866 1.53554 16.8866H16.8889C17.3214 16.8866 17.6998 17.256 17.6998 17.6782C17.6998 18.1003 17.3214 18.4697 16.8889 18.4697H10.0232V38.4697C10.0232 38.8919 9.64472 39.2613 9.21224 39.2613C8.77975 39.2613 8.40132 38.8919 8.40132 38.4697V18.4697H8.45538Z" fill="black"/>
<path d="M9.21247 39.9473C8.40155 39.9473 7.69876 39.2612 7.69876 38.4697V19.2085H1.53578C0.670799 19.2085 0.0220642 18.5225 0.0220642 17.6781C0.0220642 16.8338 0.72486 16.2006 1.53578 16.2006H16.8892C17.7541 16.2006 18.4029 16.8866 18.4029 17.6781C18.4029 18.5225 17.7001 19.2085 16.8892 19.2085H10.7262V38.4697C10.7262 39.2612 10.0775 39.9473 9.21247 39.9473ZM1.53578 17.6254C1.48172 17.6781 1.53578 17.6254 1.53578 17.6254C1.48172 17.7309 1.53578 17.7309 1.53578 17.7309H9.15841V38.4697L9.21247 38.5225L9.26653 38.4697V17.7309H16.8892C16.8892 17.7309 16.9432 17.7309 16.9432 17.6781L16.8892 17.6254H1.53578ZM35.0537 34.1953C35.0537 32.5594 34.1888 31.5568 33.2157 30.818C32.1885 30.132 30.9991 29.7626 30.5667 29.7098C30.4585 29.657 30.4585 29.657 30.4045 29.657H24.8362V38.4697C24.8362 38.8919 24.4577 39.2612 24.0252 39.2612C23.5928 39.2612 23.2143 38.8919 23.2143 38.4697V17.6781C23.2143 17.3087 23.5387 16.9393 23.9171 16.8866H30.4585C34.0266 16.8866 36.9459 19.7362 36.9459 23.2718C36.9459 25.8048 35.4322 28.0211 33.1616 29.0238L33.486 29.1821C34.9997 30.0264 36.5674 31.6623 36.5674 34.1425C36.5674 35.4618 36.6756 36.2533 36.8378 36.7283C36.9459 37.0977 37.1081 37.256 37.1621 37.256C37.5405 37.2032 37.919 37.4143 38.0271 37.7837C38.1352 38.2058 37.919 38.628 37.4865 38.7863C37.4324 38.7863 37.2702 38.8391 37.1081 38.8391H37.054C36.6215 38.8391 35.9187 38.5225 35.5943 37.8364C35.27 37.0977 35.0537 36.095 35.0537 34.1953ZM30.5126 18.4697H24.8362V28.1267H30.6207C33.2697 28.0739 35.4322 25.9103 35.4322 23.3246C35.4322 20.5805 33.2157 18.4697 30.5126 18.4697Z" fill="black"/>
<path d="M24.025 39.9473C23.16 39.9473 22.5113 39.2612 22.5113 38.4697V17.6781C22.5113 16.9393 23.16 16.2533 23.9169 16.2006H30.5124C34.5129 16.2006 37.7566 19.3668 37.7566 23.3246C37.7566 25.6465 36.5672 27.8101 34.6751 29.1293C35.8104 29.9736 37.3781 31.5568 37.3781 34.2481C37.3781 35.5673 37.5403 36.2533 37.6484 36.6227C37.6484 36.6755 37.6484 36.6755 37.7025 36.6755C38.2431 36.781 38.6756 37.1504 38.8918 37.6254V37.7309C39.054 38.5225 38.6756 39.314 37.9187 39.5779H37.6484C37.5403 39.5779 37.3781 39.6306 37.2159 39.6306H37.1619C36.5131 39.6306 35.54 39.2085 35.0535 38.2058C34.5669 37.3087 34.3507 36.095 34.3507 34.1953C34.3507 33.0343 33.8641 32.19 32.7829 31.3984C31.9179 30.818 30.8367 30.4486 30.4583 30.3958L30.3502 30.343C30.2961 30.343 30.2961 30.343 30.2961 30.2903H25.6468V38.4169C25.5928 39.2612 24.89 39.9473 24.025 39.9473ZM24.025 17.6254C23.9709 17.6781 24.025 17.6254 24.025 17.6254L23.9709 38.4697L24.025 38.5225C24.0791 38.5225 24.0791 38.4697 24.0791 38.4697V28.9182H30.3502C30.5124 28.9182 30.6745 28.971 30.7286 29.0238C31.3233 29.1293 32.5667 29.5515 33.5938 30.2375C35.0535 31.2929 35.7563 32.6122 35.7563 34.1953C35.7563 35.8312 35.9185 36.8338 36.2969 37.5198C36.5672 37.9948 36.9997 38.1531 37.1078 38.1531H37.3241C37.3241 38.1531 37.3781 38.1003 37.3781 38.0475H37.27L36.9456 38.1003L36.6753 37.8892C36.6213 37.8364 36.351 37.5726 36.1888 37.0449C35.9725 36.4116 35.8644 35.4618 35.8644 34.2481C35.8644 31.6623 34.0263 30.343 33.1614 29.9209C33.1073 29.9209 33.1073 29.8681 33.0532 29.8681L32.7289 29.7098L31.6476 29.0238L32.837 28.4961C34.8373 27.5462 36.1888 25.5409 36.1888 23.3773C36.1888 20.2639 33.5938 17.7309 30.4042 17.7309H24.025V17.6254ZM30.3502 28.8127H24.0791V17.7309H30.4583C33.5938 17.7309 36.1347 20.2111 36.1347 23.2718C36.1347 26.2269 33.6479 28.7599 30.6205 28.8127H30.3502ZM25.5928 27.3879H30.6205C32.837 27.3351 34.6751 25.4882 34.6751 23.2718C34.6751 21.0027 32.7829 19.1557 30.4583 19.1557H25.5387V27.3879H25.5928ZM68.8418 38.7863C68.7877 38.7863 68.7877 38.7335 68.7877 38.7335L68.7336 38.6808L59.8676 18.1003C59.7054 17.7309 59.9217 17.256 60.3001 17.0977C60.6785 16.8866 61.1651 17.0977 61.3273 17.4671L69.4905 36.4644L77.7078 17.4671C77.8159 17.0977 78.3025 16.8866 78.735 17.0977C79.1134 17.256 79.3296 17.7309 79.1674 18.1003L70.3555 38.5225C70.3014 38.7863 70.1392 39.0502 69.923 39.1557H69.8689C69.7608 39.2085 69.6527 39.2085 69.5986 39.2085C69.4905 39.2085 69.3824 39.2085 69.3283 39.1557C69.2742 39.1557 69.2743 39.1029 69.2743 39.1029C69.0039 39.1029 68.8958 38.9974 68.8418 38.7863Z" fill="black"/>
<path d="M69.5445 39.9472C69.3823 39.9472 69.2201 39.9472 69.0039 39.8944C68.8958 39.8944 68.8417 39.8417 68.7877 39.7889C68.5174 39.6833 68.3011 39.4723 68.193 39.2084C68.193 39.2084 68.1389 39.1556 68.1389 39.1029L68.0849 38.9973L59.2188 18.4168C58.8945 17.6781 59.2729 16.781 60.0297 16.4643C60.246 16.3588 60.4622 16.306 60.6785 16.306C61.2732 16.306 61.8678 16.6754 62.0841 17.2031L69.5986 34.6174L77.1131 17.2031C77.3293 16.6754 77.8699 16.306 78.4646 16.306C78.6809 16.306 78.8971 16.3588 79.1133 16.4643C79.8702 16.781 80.2486 17.6781 79.9243 18.4168L71.1123 38.7335C71.0042 39.2612 70.6798 39.6833 70.1933 39.8417L70.0851 39.8944H70.0311C69.8689 39.8944 69.7067 39.9472 69.5445 39.9472ZM69.4364 38.3641L69.4905 38.4169V38.5224H69.5445V38.3641L78.4646 17.8364C78.4646 17.8364 78.4646 17.7836 78.4105 17.7836H78.3565L69.4905 38.3641L60.6244 17.7836H60.5163C60.5163 17.7836 60.4622 17.8364 60.4622 17.8891L69.1661 38.1002H69.2201L69.4364 38.3641ZM84.1951 17.6781C84.1951 17.2559 84.5735 16.8865 84.952 16.8865H96.6832C97.1157 16.8865 97.4942 17.2559 97.4942 17.6781C97.4942 18.1002 97.1698 18.4696 96.6832 18.4696H85.7629V27.2823H95.3317C95.7642 27.2823 96.0886 27.6517 96.0886 28.0738C96.0886 28.496 95.7101 28.8654 95.3317 28.8654H85.7629V37.6781H96.6832C97.1157 37.6781 97.4942 38.0475 97.4942 38.4696C97.4942 38.8918 97.1698 39.2612 96.6832 39.2612H84.8979C84.5195 39.2084 84.1951 38.8918 84.1951 38.4696V17.6781Z" fill="black"/>
<path d="M96.7373 39.9473H84.8438C84.0329 39.8945 83.4382 39.2612 83.4382 38.4697V17.6781C83.4382 16.8338 84.141 16.2006 84.9519 16.2006H96.7373C97.6023 16.2006 98.251 16.8338 98.251 17.6781C98.251 18.5225 97.6023 19.2085 96.7373 19.2085H86.5197V26.5963H95.3317C96.1967 26.5963 96.8454 27.2824 96.8454 28.1267C96.8454 28.971 96.1426 29.6043 95.3317 29.6043H86.5197V36.9921H96.7373C97.6023 36.9921 98.251 37.6781 98.251 38.5225C98.251 39.314 97.6023 39.9473 96.7373 39.9473ZM84.9519 38.5225H96.7373C96.7373 38.5225 96.7914 38.5225 96.7914 38.4697C96.7914 38.4169 96.7373 38.4169 96.7373 38.4169H85.0601V28.1267H95.3858L95.4398 28.0739C95.4398 28.0211 95.3858 28.0211 95.3858 28.0211H85.0601V17.7309H96.7373C96.7373 17.7309 96.7914 17.7309 96.7914 17.6781C96.7914 17.6254 96.7373 17.6254 96.7373 17.6254H84.9519L84.8979 17.6781L84.9519 38.5225C84.9519 38.5225 84.9519 38.4697 84.9519 38.5225ZM104.414 39.2085H104.36C103.927 39.2085 103.603 38.8391 103.603 38.4169V17.6781C103.603 17.256 103.982 16.8866 104.36 16.8866C104.792 16.8866 105.171 17.256 105.171 17.6781V37.6781H116.091C116.524 37.6781 116.902 38.0475 116.902 38.4697C116.902 38.8919 116.524 39.2612 116.091 39.2612H104.414V39.2085Z" fill="black"/>
<path d="M116.145 39.9473H104.36C103.549 39.9473 102.846 39.2612 102.846 38.4697V17.6781C102.846 16.8866 103.549 16.2006 104.36 16.2006C105.225 16.2006 105.928 16.8866 105.928 17.6781V36.9393H116.145C117.01 36.9393 117.713 37.6254 117.713 38.4697C117.659 39.2612 116.956 39.9473 116.145 39.9473ZM104.36 17.6254C104.306 17.6781 104.36 17.6254 104.36 17.6254L104.306 38.4697L104.36 38.5225H116.145C116.199 38.5225 116.199 38.4697 116.199 38.4697C116.199 38.4169 116.145 38.4169 116.145 38.4169H104.468V17.6781C104.414 17.6781 104.414 17.6254 104.36 17.6254Z" fill="black"/>
<path d="M144.257 39.2085H144.149C143.771 39.1557 143.446 38.8391 143.446 38.4169V17.6782C143.446 17.256 143.825 16.8866 144.257 16.8866H148.528C154.853 16.8866 159.989 21.8998 159.989 28.0739C159.989 34.2481 154.853 39.2085 148.528 39.2085H144.257ZM148.474 37.6782C153.88 37.6782 158.313 33.4037 158.313 28.1267C158.313 22.7969 153.88 18.5225 148.474 18.4697H145.014V37.6782H148.474Z" fill="#C1B900"/>
<path d="M148.474 39.9473H144.041C143.284 39.8945 142.635 39.2085 142.635 38.4697V17.6782C142.635 16.8338 143.338 16.2006 144.149 16.2006H148.42C155.123 16.2006 160.584 21.5304 160.584 28.1267C160.638 34.6175 155.177 39.9473 148.474 39.9473ZM144.149 38.5225H148.42C154.312 38.5225 159.124 33.8787 159.124 28.1267C159.124 22.3747 154.312 17.6782 148.42 17.6782H144.149L144.095 17.7309L144.149 38.5225C144.149 38.5225 144.149 38.4697 144.149 38.5225ZM148.474 38.3642H144.257V17.7309H148.474C154.313 17.7837 159.07 22.4275 159.07 28.0739C159.016 33.7731 154.313 38.3642 148.474 38.3642ZM145.717 36.9394H148.42C153.448 36.9394 157.502 32.9816 157.502 28.0739C157.502 23.1663 153.393 19.2085 148.42 19.1557H145.717V36.9394ZM171.666 38.7863C171.612 38.7863 171.612 38.7336 171.612 38.7336L171.558 38.6808L162.692 18.1003C162.53 17.7309 162.746 17.256 163.124 17.0977C163.503 16.8866 163.989 17.0977 164.152 17.4671L172.315 36.4644L187.722 1.16101C187.83 0.791618 188.317 0.580536 188.75 0.791618C189.128 0.949929 189.344 1.42486 189.182 1.79426L173.126 38.5225C173.072 38.7863 172.91 39.0502 172.693 39.1557H172.639C172.531 39.2085 172.423 39.2085 172.369 39.2085C172.261 39.2085 172.153 39.2085 172.099 39.1557C172.045 39.1557 172.045 39.103 172.045 39.103C171.828 39.103 171.72 38.9974 171.666 38.7863Z" fill="#C1B900"/>
<path d="M172.369 39.9472C172.207 39.9472 172.045 39.9472 171.828 39.8945C171.72 39.8945 171.666 39.8417 171.612 39.7889C171.342 39.6834 171.126 39.4723 171.017 39.2084C171.017 39.1557 170.963 39.1557 170.963 39.1029L162.043 18.4169C161.719 17.6781 162.097 16.781 162.854 16.4644C163.07 16.3588 163.287 16.3061 163.503 16.3061C164.098 16.3061 164.692 16.6755 164.909 17.2032L172.423 34.6174L187.074 0.897098C187.29 0.369393 187.83 0 188.425 0C188.641 0 188.858 0.0527705 189.074 0.158311C189.452 0.316623 189.723 0.580475 189.885 0.949868C190.047 1.31926 190.047 1.74142 189.885 2.11082L173.883 38.7335C173.775 39.2612 173.45 39.6834 172.964 39.8417L172.856 39.8945H172.801C172.639 39.8945 172.531 39.9472 172.369 39.9472ZM172.261 38.3641L172.315 38.4169V38.5224H172.369V38.3641L172.423 38.2586L188.479 1.53034C188.479 1.53034 188.479 1.47757 188.425 1.47757H188.371L172.315 38.3641L163.449 17.7836H163.341C163.341 17.7836 163.287 17.8364 163.287 17.8892L171.991 38.1003H172.045L172.261 38.3641Z" fill="#C1B900"/>
<path d="M187.236 17.6782C187.236 17.256 187.614 16.8866 187.993 16.8866C188.425 16.8866 188.804 17.256 188.804 17.6782V38.4697C188.804 38.8919 188.425 39.2613 187.993 39.2613C187.56 39.2613 187.236 38.8919 187.236 38.4697V17.6782Z" fill="#C1B900"/>
<path d="M187.993 39.9473C187.128 39.9473 186.479 39.2612 186.479 38.4697V17.6781C186.479 16.8338 187.182 16.2006 187.993 16.2006C188.858 16.2006 189.56 16.8866 189.56 17.6781V38.4697C189.56 39.2612 188.858 39.9473 187.993 39.9473ZM187.993 17.6254C187.993 17.6254 187.993 17.6781 187.993 17.6254L187.939 38.4697L187.993 38.5225C188.047 38.5225 188.047 38.4697 188.047 38.4697V17.6781C188.101 17.6781 188.101 17.6254 187.993 17.6254Z" fill="#C1B900"/>
<path d="M195.291 35.0395C195.561 34.7229 195.994 34.6701 196.318 34.934C197.994 36.2532 200.859 37.8364 203.833 37.7836C205.833 37.7836 207.617 37.2031 208.86 36.306C210.158 35.4089 210.806 34.248 210.806 32.9815C210.806 31.715 210.212 30.7651 208.968 29.9208C207.725 29.1292 205.887 28.496 203.67 28.1266H203.616C201.508 27.7572 199.616 27.1767 198.21 26.2269C196.805 25.3298 195.886 24.0105 195.886 22.3218C195.886 20.6332 196.859 19.1556 198.264 18.153C199.724 17.1503 201.616 16.5171 203.778 16.5171C206.806 16.5171 209.022 17.9419 210.86 19.1028C211.185 19.3139 211.293 19.7361 211.077 20.1055C210.86 20.4221 210.428 20.5276 210.104 20.3166C208.32 19.1556 206.373 17.9419 203.833 17.9419C201.994 17.9419 200.319 18.4696 199.183 19.2612C198.048 20.1055 197.399 21.1609 197.399 22.3218C197.453 23.43 197.94 24.2743 199.075 25.0131C200.21 25.7519 201.94 26.3324 203.995 26.7018H204.049C206.319 27.124 208.374 27.7572 209.887 28.7598C211.401 29.7097 212.428 31.1873 212.428 32.9815C212.428 34.7757 211.401 36.3588 209.833 37.467C208.32 38.5751 206.265 39.2084 203.941 39.2084C200.427 39.1556 197.399 37.467 195.507 35.9894C195.075 35.7783 195.075 35.3561 195.291 35.0395Z" fill="#C1B900"/>
<path d="M203.833 40C199.832 39.9472 196.534 37.8892 194.967 36.6227H194.912C194.318 36.095 194.264 35.2506 194.696 34.6702C194.967 34.3008 195.399 34.1425 195.832 34.1425C196.156 34.1425 196.48 34.248 196.751 34.4591C197.561 35.0923 200.427 37.1504 203.724 37.1504H203.778C205.508 37.1504 207.184 36.6754 208.374 35.8311C209.455 35.0923 210.05 34.0897 210.05 33.087C210.05 32.0844 209.563 31.3456 208.482 30.6068C207.401 29.9208 205.671 29.3403 203.562 28.9182H203.454C201.021 28.496 199.129 27.81 197.778 26.9129C196.048 25.8047 195.075 24.2216 195.075 22.4274C195.075 20.5804 196.048 18.8918 197.778 17.6781C199.4 16.5171 201.508 15.9366 203.724 15.9366C206.968 15.9366 209.401 17.5198 211.185 18.6279C211.888 19.1029 212.05 19.9472 211.617 20.5804C211.401 20.9498 210.915 21.2137 210.428 21.2137C210.158 21.2137 209.833 21.1082 209.617 20.9498C207.995 19.8944 206.103 18.7335 203.778 18.7335C202.157 18.7335 200.643 19.1556 199.508 19.9472C198.535 20.6332 197.994 21.5303 197.994 22.4274C197.994 23.2717 198.426 23.905 199.4 24.5382C200.373 25.1715 201.886 25.6992 203.941 26.1213H204.049C206.644 26.5963 208.644 27.2823 210.158 28.2849C211.942 29.4459 213.023 31.1873 213.023 33.087C213.023 34.9868 211.996 36.8338 210.158 38.153C208.374 39.314 206.157 40 203.833 40Z" fill="#C1B900"/>
<path d="M228.16 16.5699C234.269 16.5699 239.08 21.6359 239.08 27.9156C239.026 34.1425 234.269 39.2612 228.16 39.2612C221.997 39.2612 217.132 34.1953 217.132 27.9156C217.132 21.6359 221.997 16.5699 228.16 16.5699ZM228.16 37.6781C233.188 37.6781 237.459 33.3509 237.459 27.9156C237.405 22.3747 233.188 18.2058 228.16 18.2058C222.97 18.2058 218.699 22.4275 218.699 27.9156C218.699 33.3509 222.97 37.6781 228.16 37.6781Z" fill="#C1B900"/>
<path d="M228.16 39.9472C221.565 39.9472 216.429 34.6702 216.375 27.9156C216.429 21.161 221.565 15.8839 228.16 15.8839C234.701 15.8839 239.783 21.161 239.837 27.9156C239.783 34.6702 234.647 39.9472 228.16 39.9472ZM228.16 17.3087C222.43 17.3087 217.888 21.9525 217.834 27.9156C217.888 33.8259 222.43 38.5224 228.16 38.5224C233.836 38.5224 238.324 33.8786 238.378 27.9156C238.324 21.9525 233.836 17.3087 228.16 17.3087ZM228.16 38.3641C222.538 38.3641 217.997 33.6675 217.997 27.8628C217.997 22.0053 222.484 17.4143 228.16 17.4143C233.674 17.4143 238.161 22.1108 238.215 27.8628C238.161 33.6675 233.674 38.3641 228.16 38.3641ZM228.16 18.8918C223.295 18.8918 219.456 22.8496 219.456 27.9156C219.456 32.876 223.349 36.9393 228.16 36.9393C232.863 36.9393 236.702 32.876 236.756 27.9156C236.702 22.9552 232.863 18.8918 228.16 18.8918Z" fill="#C1B900"/>
<path d="M257.245 34.1953C257.245 32.5594 256.38 31.5568 255.407 30.818C254.38 30.132 253.19 29.7626 252.758 29.7098C252.65 29.657 252.65 29.657 252.596 29.657H247.027V38.4697C247.027 38.8919 246.649 39.2613 246.217 39.2613C245.784 39.2613 245.406 38.8919 245.406 38.4697V17.6782C245.406 17.3088 245.73 16.9394 246.108 16.8866H252.65C256.218 16.8866 259.137 19.7362 259.137 23.2718C259.137 25.8048 257.623 28.0212 255.353 29.0238L255.677 29.1821C257.191 30.0264 258.759 31.6623 258.759 34.1425C258.759 35.4618 258.867 36.2533 259.029 36.7283C259.137 37.0977 259.299 37.256 259.353 37.256C259.732 37.2032 260.11 37.4143 260.218 37.7837C260.326 38.2058 260.11 38.628 259.678 38.7863C259.624 38.7863 259.461 38.8391 259.299 38.8391H259.245C258.813 38.8391 258.11 38.5225 257.786 37.8365C257.515 37.0977 257.245 36.095 257.245 34.1953ZM252.704 18.4697H247.027V28.1267H252.812C255.461 28.0739 257.623 25.9103 257.623 23.3246C257.623 20.5805 255.407 18.4697 252.704 18.4697Z" fill="#C1B900"/>
<path d="M246.217 39.9473C245.406 39.9473 244.703 39.2612 244.703 38.4697V17.6781C244.703 16.9393 245.352 16.2533 246.108 16.2006H252.704C256.704 16.2006 259.948 19.3668 259.948 23.3246C259.948 25.6465 258.759 27.8101 256.867 29.1293C258.002 29.9736 259.57 31.5568 259.57 34.2481C259.57 35.5673 259.732 36.2533 259.84 36.6227C259.84 36.6755 259.84 36.6755 259.894 36.6755C260.435 36.781 260.867 37.1504 261.083 37.6254V37.7309C261.246 38.5225 260.867 39.314 260.11 39.5779L260.002 39.6306H259.894C259.786 39.6306 259.624 39.6834 259.462 39.6834H259.408C258.705 39.6834 257.786 39.2612 257.299 38.2586C256.813 37.3615 256.596 36.1478 256.596 34.2481C256.596 33.0871 256.11 32.2428 255.029 31.4512C254.164 30.8707 253.082 30.5014 252.704 30.4486L252.596 30.3958C252.542 30.3958 252.542 30.3958 252.542 30.343H247.892V38.4697C247.784 39.2612 247.082 39.9473 246.217 39.9473ZM246.217 17.6254C246.163 17.6781 246.217 17.6254 246.217 17.6254L246.163 38.4697L246.217 38.5225C246.271 38.5225 246.271 38.4697 246.271 38.4697V28.9182H252.542C252.704 28.9182 252.866 28.971 252.92 29.0238C253.515 29.1293 254.758 29.5515 255.785 30.2375C257.245 31.2929 257.948 32.6122 257.948 34.1953C257.948 35.8312 258.11 36.8338 258.488 37.5198C258.759 37.9948 259.191 38.1531 259.299 38.1531H259.516C259.516 38.1531 259.57 38.1003 259.57 38.0475H259.462L259.137 38.1003L258.867 37.8364C258.813 37.7837 258.543 37.5198 258.38 36.9921C258.164 36.3589 258.056 35.409 258.056 34.1953C258.056 31.6095 256.218 30.2903 255.353 29.8681C255.299 29.8681 255.299 29.8153 255.245 29.8153C255.137 29.7626 255.083 29.7098 254.92 29.657L253.839 28.971L255.029 28.4433C257.029 27.4934 258.38 25.4882 258.38 23.3246C258.38 20.2111 255.785 17.6781 252.596 17.6781H246.217V17.6254ZM252.542 28.8127H246.325V17.7309H252.704C255.839 17.7309 258.38 20.2111 258.38 23.2718C258.38 26.2269 255.894 28.7599 252.866 28.8127H252.542ZM247.784 27.3879H252.812C255.029 27.3351 256.867 25.4882 256.867 23.2718C256.867 21.0027 254.974 19.1557 252.65 19.1557H247.73V27.3879H247.784Z" fill="#C1B900"/>
<path d="M265.246 35.0395C265.516 34.7229 265.949 34.6701 266.273 34.934C267.949 36.2532 270.814 37.8364 273.788 37.7836C275.788 37.7836 277.572 37.2031 278.816 36.306C280.113 35.4089 280.762 34.248 280.762 32.9815C280.762 31.715 280.167 30.7651 278.924 29.9208C277.68 29.1292 275.842 28.496 273.626 28.1266H273.572C271.463 27.7572 269.571 27.1767 268.165 26.2269C266.76 25.3298 265.787 24.0105 265.787 22.3218C265.787 20.6332 266.76 19.1556 268.165 18.153C269.625 17.1503 271.517 16.5171 273.68 16.5171C276.707 16.5171 278.924 17.9419 280.762 19.1028C281.086 19.3139 281.194 19.7361 280.978 20.1055C280.762 20.4221 280.329 20.5276 280.005 20.3166C278.221 19.1556 276.221 17.9419 273.734 17.9419C271.896 17.9419 270.22 18.4696 269.084 19.2612C267.949 20.1055 267.3 21.1609 267.3 22.3218C267.354 23.43 267.841 24.2743 268.976 25.0131C270.112 25.7519 271.842 26.3324 273.896 26.7018H273.95C276.221 27.124 278.275 27.7572 279.789 28.7598C281.302 29.7097 282.329 31.1873 282.329 32.9815C282.329 34.7757 281.302 36.3588 279.735 37.467C278.221 38.5751 276.112 39.2084 273.842 39.2084C270.328 39.1556 267.3 37.467 265.408 35.9894C265.084 35.7783 265.03 35.3561 265.246 35.0395Z" fill="#C1B900"/>
<path d="M273.788 40C269.787 39.9472 266.49 37.8892 264.922 36.6227H264.868C264.273 36.095 264.219 35.2506 264.651 34.6702C264.922 34.3008 265.354 34.1425 265.787 34.1425C266.111 34.1425 266.435 34.248 266.706 34.4591C267.517 35.0923 270.382 37.1504 273.68 37.1504H273.734C275.464 37.1504 277.14 36.6754 278.329 35.8311C279.41 35.0923 280.005 34.0897 280.005 33.087C280.005 32.0844 279.518 31.3456 278.437 30.6068C277.356 29.9208 275.626 29.3403 273.517 28.9182H273.409C270.977 28.496 269.084 27.81 267.733 26.9129C266.003 25.8047 265.03 24.2216 265.03 22.4274C265.03 20.5804 266.003 18.8918 267.733 17.6781C269.355 16.5171 271.463 15.9366 273.68 15.9366C276.923 15.9366 279.356 17.5198 281.14 18.6279C281.843 19.1029 282.005 19.9472 281.573 20.5804C281.356 20.9498 280.87 21.2137 280.383 21.2137C280.113 21.2137 279.789 21.1082 279.572 20.9498C277.95 19.8944 276.058 18.7335 273.734 18.7335C272.112 18.7335 270.598 19.1556 269.517 19.9472C268.544 20.6332 268.003 21.5303 268.003 22.4274C268.003 23.2717 268.436 23.905 269.409 24.5382C270.382 25.1715 271.896 25.6992 273.95 26.1213H274.058C276.653 26.5963 278.653 27.2823 280.167 28.2849C281.951 29.4459 283.032 31.1873 283.032 33.087C283.032 34.9868 282.005 36.8338 280.167 38.153C278.383 39.314 276.112 40 273.788 40Z" fill="#C1B900"/>
<path d="M51.8124 17.2559C51.8665 17.2559 51.8665 17.3087 51.8665 17.3087L51.9206 17.3614L60.7866 37.9419C60.9488 38.3113 60.7325 38.7862 60.3541 38.9446C59.9757 39.1556 59.4891 38.9446 59.3269 38.5752L51.0556 19.525L42.8383 38.5224C42.7302 38.8918 42.2436 39.1029 41.8111 38.8918C41.4327 38.7335 41.2165 38.2585 41.3786 37.8891L50.2987 17.5198C50.3528 17.2559 50.515 16.9921 50.7312 16.8865H50.7853C50.8934 16.8337 51.0015 16.8337 51.0556 16.8337C51.1637 16.8337 51.2718 16.8337 51.3259 16.8865C51.38 16.8865 51.38 16.9393 51.38 16.9393C51.5962 16.9393 51.7584 17.0448 51.8124 17.2559Z" fill="black"/>
<path d="M59.9757 39.7361C59.381 39.7361 58.7864 39.3667 58.5701 38.839L51.0556 21.4248L43.5411 38.839C43.3248 39.3667 42.7842 39.7361 42.1896 39.7361C41.9733 39.7361 41.7571 39.6834 41.5408 39.5778C40.784 39.2612 40.4055 38.3641 40.7299 37.6253L49.5419 17.3087C49.65 16.781 49.9744 16.3588 50.4609 16.2005L50.569 16.1477H50.6231C50.7312 16.095 50.8934 16.095 51.0556 16.095C51.2178 16.095 51.38 16.095 51.5962 16.1477C51.7043 16.1477 51.7584 16.2005 51.8125 16.2533C52.0828 16.3588 52.299 16.5699 52.4071 16.8338C52.4612 16.8865 52.4612 16.8865 52.4612 16.9393L52.5153 17.0976L61.3813 37.6781C61.5435 38.0475 61.5435 38.4696 61.3813 38.839C61.2191 39.2084 60.9488 39.525 60.5704 39.6306C60.4082 39.6834 60.1919 39.7361 59.9757 39.7361ZM51.1097 17.6781L59.9757 38.2586H60.0838C60.0838 38.2586 60.1379 38.2058 60.0838 38.153L51.3259 17.9947H51.2718L51.1637 17.7309L51.1097 17.6781V17.5725H51.0556V17.7309L42.1355 38.2058C42.1355 38.2058 42.1355 38.2586 42.1896 38.2586H42.2436L51.1097 17.6781Z" fill="black"/>
<path d="M129.769 17.2559C129.823 17.2559 129.823 17.3087 129.823 17.3087L129.877 17.3614L138.743 37.9419C138.905 38.3113 138.689 38.7862 138.31 38.9446C137.932 39.1556 137.445 38.9446 137.283 38.5752L129.12 19.5778L120.903 38.5752C120.795 38.9446 120.308 39.1556 119.876 38.9446C119.497 38.7862 119.281 38.3113 119.443 37.9419L128.309 17.5198C128.363 17.2559 128.525 16.9921 128.742 16.8865H128.796C128.904 16.8337 129.012 16.8337 129.066 16.8337C129.174 16.8337 129.282 16.8337 129.336 16.8865C129.39 16.8865 129.39 16.9393 129.39 16.9393C129.552 16.9393 129.715 17.0976 129.769 17.2559Z" fill="#C1B900"/>
<path d="M137.932 39.7361C137.337 39.7361 136.743 39.3667 136.526 38.839L129.012 21.4248L121.497 38.839C121.281 39.3667 120.74 39.7361 120.146 39.7361C119.93 39.7361 119.713 39.6834 119.497 39.5778C119.119 39.4195 118.848 39.1557 118.686 38.7863C118.524 38.4169 118.524 37.9947 118.686 37.6253L127.498 17.3087C127.606 16.781 127.931 16.3588 128.417 16.2005L128.525 16.1477H128.579C128.688 16.095 128.85 16.095 129.012 16.095C129.174 16.095 129.336 16.095 129.552 16.1477C129.661 16.1477 129.715 16.2005 129.769 16.2533C130.039 16.3588 130.255 16.5699 130.363 16.8338L130.417 16.8865L130.472 17.0448L139.338 37.6253C139.5 37.9947 139.5 38.4169 139.338 38.7863C139.175 39.1557 138.905 39.4195 138.527 39.5778C138.364 39.6834 138.148 39.7361 137.932 39.7361ZM129.066 17.6781L137.932 38.2586H138.04L138.094 38.2058L129.39 17.9947H129.228L129.12 17.7309L129.066 17.6781V17.5725H129.012V17.7309L128.958 17.8364L120.092 38.2586C120.092 38.2586 120.092 38.3113 120.146 38.3113H120.2L129.066 17.6781Z" fill="#C1B900"/>
</g>
<defs>
<clipPath id="clip0_464_10217">
<rect width="283" height="40" fill="white"/>
</clipPath>
</defs>
</svg>
