<svg width="332" height="32" viewBox="0 0 332 32" fill="none" xmlns="http://www.w3.org/2000/svg">
<g clip-path="url(#clip0_464_10248)">
<path fill-rule="evenodd" clip-rule="evenodd" d="M20.609 0.468307H26.5715V7.69892H32.8023V12.1137H26.5715V22.7908C26.5715 25.4833 26.7019 26.9336 28.7372 26.9336C30.2056 26.9336 31.589 26.8931 33.0121 26.8468V31.2616C31.417 31.4834 30.2491 31.6126 28.4368 31.6126C21.1722 31.6126 20.6109 28.9684 20.6109 24.5536V0.468307H20.609ZM38.4642 7.69892H44.4324V12.2448H44.5193C46.1143 9.6006 48.5824 7.08174 53.1672 7.08174C54.0705 7.08174 54.7622 7.16854 55.5408 7.30355V13.3037C54.3138 12.8965 53.0284 12.7028 51.7385 12.7308C48.711 12.7308 44.4324 14.3587 44.4324 19.786V31.0784H38.4642V7.69892ZM76.8015 21.6818C76.8015 26.8468 71.4004 28.085 68.1971 28.085C66.1712 28.085 63.4026 27.5122 63.4026 24.4244C63.4026 22.4321 64.4798 21.4215 68.9757 20.8911C73.2127 20.4128 75.078 20.191 76.8015 19.4369V21.6818ZM82.7678 14.6711C82.7678 11.6257 82.4238 6.81751 70.4479 6.81751C63.6596 6.81751 59.209 8.71726 58.3416 14.8485H64.1812C64.391 12.2467 66.5132 10.9642 70.4479 10.9642C73.9063 10.9642 76.9281 11.6276 76.9281 14.3181C76.9281 16.135 76.0191 16.4416 67.4657 17.269C63.6596 17.6278 57.1718 18.1986 57.1718 24.6404C57.1718 29.2288 60.5414 31.9636 66.5114 31.9636C73.209 31.9636 76.1061 29.8961 77.2759 28.7466C77.4479 29.6241 77.8825 31.7457 81.7737 31.7457C83.7996 31.7457 84.8428 31.4371 86.0107 31.2153V26.9355C85.5345 27.0301 84.6255 27.0706 84.0604 27.0706C83.6768 27.0706 82.7659 27.0301 82.7659 25.7436V14.6711H82.7678ZM85.8331 7.69892H92.576L99.4021 25.084L106.495 7.69892H113.241L102.775 31.0803H96.2915L85.8331 7.69892ZM120.708 17.0569C121.704 12.293 125.593 10.9642 128.358 10.9642C131.303 10.9642 135.368 12.3779 136.095 17.0569H120.708ZM142.328 20.9393V20.054C142.328 13.2169 138.433 6.81559 128.271 6.81559C120.147 6.81559 114.487 11.8032 114.487 19.6085C114.487 25.8285 118.331 31.9598 128.664 31.9598C137.397 31.9598 140.512 26.8025 141.81 24.2007H135.326C134.156 26.1448 132.425 27.5527 128.491 27.5527C122.572 27.5527 120.84 23.5411 120.71 20.9374H142.328V20.9393ZM147.158 0.462524H153.125V31.0803H147.158V0.462524Z" fill="#2E9FDD"/>
<path fill-rule="evenodd" clip-rule="evenodd" d="M7.00134 16.2796C7.00134 18.2758 5.41577 19.892 3.46168 19.892C1.50758 19.892 -0.0685425 18.2758 -0.0685425 16.2796C-0.0685425 15.3228 0.303889 14.4052 0.966819 13.7287C1.62975 13.0521 2.52888 12.672 3.4664 12.672C4.40393 12.672 5.30305 13.0521 5.96598 13.7287C6.62891 14.4052 7.00134 15.3228 7.00134 16.2796ZM7.00134 3.64289C7.00134 5.63715 5.41577 7.25339 3.46168 7.25339C1.50758 7.25339 -0.0685425 5.63908 -0.0685425 3.64289C-0.0685425 1.64478 1.50758 0.0362549 3.46168 0.0362549C5.41577 0.0362549 7.00134 1.64478 7.00134 3.64289ZM17.558 9.8976C17.558 10.8541 17.1856 11.7715 16.5229 12.4479C15.8601 13.1243 14.9613 13.5042 14.024 13.5042C13.0867 13.5042 12.1878 13.1243 11.5251 12.4479C10.8623 11.7715 10.49 10.8541 10.49 9.8976C10.52 8.96148 10.9055 8.07394 11.5649 7.42256C12.2244 6.77119 13.1062 6.40702 14.024 6.40702C14.9417 6.40702 15.8235 6.77119 16.483 7.42256C17.1425 8.07394 17.528 8.96148 17.558 9.8976ZM183.888 22.7176C183.272 25.7726 180.625 31.8036 172.302 31.8036C164.013 31.8036 159.387 26.7215 159.387 19.3906C159.387 12.376 163.618 6.97951 172.302 6.97951C180.141 6.97951 183.187 11.9729 183.707 15.3442H180.443C179.436 11.3403 176.354 9.76839 172.3 9.76839C165.727 9.76839 162.65 13.9903 162.65 19.3887C162.65 25.1901 166.084 29.0128 172.3 29.0128C177.094 29.0128 179.786 26.357 180.623 22.7137H183.888V22.7176ZM187.94 0.462495H191.196V12.293H191.293C192.26 9.81853 195.696 6.98145 200.765 6.98145C208.383 6.98145 210.679 11.0297 210.679 16.6017V31.0822H207.423V16.0212C207.423 11.3866 204.643 9.77225 200.498 9.77225C194.109 9.77225 191.196 13.1011 191.196 18.4031V31.0822H187.94V0.462495ZM234.381 22.0444C234.381 26.8546 229.227 29.2886 224.817 29.2886C221.292 29.2886 218.21 28.2047 218.21 24.5691C218.21 21.7744 220.413 20.6095 224.201 20.245C230.726 19.6124 232.926 19.4388 234.381 18.4899V22.0444ZM218.96 14.8968C219.177 11.159 221.64 9.77032 226.799 9.77032C232.178 9.77032 234.381 10.9835 234.381 14.3529C234.381 16.6441 233.491 17.0549 226.364 17.4619C221.341 17.7223 214.948 18.4455 214.948 24.789C214.948 30.0446 219.928 31.8036 223.847 31.8036C231.337 31.8036 233.544 28.654 234.559 27.1246H234.648C234.691 28.9665 234.865 31.2674 238.168 31.2674C239.228 31.2674 240.236 31.0379 240.899 30.9029V28.654C240.33 28.7023 239.756 28.7447 239.183 28.7447C237.902 28.7447 237.371 28.0735 237.371 26.1313V13.9073C237.371 9.41158 234.559 6.98145 226.892 6.98145C219.045 6.98145 216.446 9.99404 215.963 14.8968H218.96ZM262.976 16.0212C262.976 11.3866 260.2 9.77225 256.063 9.77225C249.67 9.77225 246.765 13.1011 246.765 18.4031V31.0822H243.498V7.69891H246.765V12.293H246.858C247.818 9.81853 251.254 6.98145 256.322 6.98145C263.951 6.98145 266.236 11.0297 266.236 16.6017V31.0822H262.976V16.0212ZM291.184 16.0212C291.184 11.3866 288.404 9.77225 284.26 9.77225C277.87 9.77225 274.958 13.1011 274.958 18.4031V31.0822H271.702V7.69891H274.958V12.293H275.047C276.022 9.81853 279.457 6.98145 284.526 6.98145C292.144 6.98145 294.44 11.0297 294.44 16.6017V31.0822H291.184V16.0212ZM302.372 17.6818C303.12 11.9748 307.612 9.77032 311.794 9.77032C316.154 9.77032 320.299 11.9304 321.229 17.6818H302.372ZM320.65 23.6144C319.509 27.167 317.037 29.0166 311.577 29.0166C305.76 29.0166 302.372 25.0532 302.372 20.2026H324.492C324.492 9.58902 317.483 6.98145 311.577 6.98145C303.035 6.98145 299.108 12.8716 299.108 19.3925C299.108 25.1111 302.19 31.8055 311.577 31.8055C319.159 31.8055 322.587 27.7591 323.912 23.6163H320.65V23.6144ZM328.803 0.462495H332.067V31.0765H328.803V0.462495Z" fill="#E0B06C"/>
</g>
<defs>
<clipPath id="clip0_464_10248">
<rect width="332" height="32" fill="white"/>
</clipPath>
</defs>
</svg>
