<svg width="165" height="48" viewBox="0 0 165 48" fill="none" xmlns="http://www.w3.org/2000/svg">
<g clip-path="url(#clip0_464_10271)">
<path d="M114.788 28.8018C114.788 35.0122 119.439 40.0451 125.64 40.0451C128.209 40.0451 130.518 39.3299 132.408 38.0738V39.5915H139.062V18.012H132.373V19.4861C130.483 18.2737 128.175 17.5585 125.649 17.5585C119.439 17.5585 114.788 22.6001 114.788 28.8018ZM132.399 28.8018C132.399 31.8285 129.943 34.2883 126.92 34.2883C123.785 34.2883 121.442 31.9419 121.442 28.8018C121.442 25.6617 123.785 23.3153 126.92 23.3153C129.943 23.3153 132.399 25.7751 132.399 28.8018ZM105.381 12.639C105.381 14.7236 107.079 16.4245 109.161 16.4245C111.243 16.4245 112.941 14.7236 112.941 12.639C112.941 10.5543 111.243 8.85339 109.161 8.85339C107.079 8.85339 105.381 10.5543 105.381 12.639ZM112.584 17.3753H105.755V38.8152C105.755 40.6993 104.222 42.2345 102.341 42.2345H100.869V48H105.764C109.518 48 112.593 44.921 112.593 41.1616L112.584 17.3753Z" fill="#FE2C54"/>
<path d="M78.7635 28.8017C78.7635 35.0121 83.4145 40.045 89.616 40.045C92.1854 40.045 94.4935 39.3298 96.3836 38.0737V39.5914H103.038V18.0119H96.3487V19.486C94.4587 18.2736 92.1506 17.5583 89.6247 17.5583C83.4145 17.5583 78.7635 22.6 78.7635 28.8017ZM96.1135 28.8017C96.1135 31.8284 93.6574 34.2881 90.635 34.2881C87.4995 34.2881 85.1565 31.9418 85.1565 28.8017C85.1565 25.6616 87.4995 23.3152 90.635 23.3152C93.6486 23.3152 96.1135 25.775 96.1135 28.8017Z" fill="#FE2C54"/>
<path d="M30.8852 12.639C30.8852 14.7236 32.5837 16.4245 34.6653 16.4245C36.747 16.4245 38.4454 14.7236 38.4454 12.639C38.4454 10.5543 36.747 8.85339 34.6653 8.85339C32.5837 8.85339 30.8852 10.5543 30.8852 12.639ZM38.0709 17.637H31.2685V39.2165H38.0709V17.637ZM3.95429 12.639H10.7828V17.637H14.7371V22.9403H10.7828V30.1538C10.7828 32.0378 12.3158 33.573 14.1971 33.573H15.6778V39.3299H10.7915C7.03758 39.3299 3.963 36.2508 3.963 32.4914V22.9315H0V17.6282H3.95429V12.639ZM17.8727 39.2078H24.7012V27.8859C24.7012 26.0019 26.2342 24.4667 28.1155 24.4667H29.5875V17.6282H24.7012C20.9473 17.6282 17.8727 20.7073 17.8727 24.4667V29.36V39.2078Z" fill="#3E82FC"/>
<path d="M66.7003 39.2077H73.5288V26.813C73.5288 24.9289 75.0618 23.3938 76.9431 23.3938H78.4238V17.6282H73.5375C69.7836 17.6282 66.709 20.7072 66.709 24.4666L66.7003 39.2077Z" fill="#FE2C54"/>
<path d="M64.6796 28.8715C64.6796 22.6611 60.0285 17.6282 53.8271 17.6282C51.2577 17.6282 48.9495 18.3434 47.0595 19.5995V17.6282H40.4138V47.6074H47.2163V38.2656C49.0715 39.4781 51.336 40.1235 53.8358 40.1235C60.0285 40.1148 64.6796 35.0819 64.6796 28.8715ZM47.0682 28.8715C47.0682 25.8448 49.5244 23.385 52.5467 23.385C55.6823 23.385 58.0252 25.7314 58.0252 28.8715C58.0252 32.0116 55.6823 34.3579 52.5467 34.3579C49.5244 34.3667 47.0682 31.9069 47.0682 28.8715Z" fill="#3E82FC"/>
<path d="M142.52 21.4313L141.126 24.1527L139.167 25.7926L139.402 26.0717L141.396 24.4057L141.44 24.3533L142.851 21.597L142.52 21.4313Z" fill="#231F20"/>
<path d="M141.318 23.8038L138.67 24.8331L138.801 25.1732L141.448 24.144L141.318 23.8038ZM138.313 22.6001L136.919 25.3215L134.96 26.9614L135.195 27.2405L137.189 25.5745L137.233 25.5221L138.644 22.7658L138.313 22.6001Z" fill="#231F20"/>
<path d="M137.111 24.9727L134.463 26.0019L134.594 26.3421L137.242 25.3128L137.111 24.9727Z" fill="#231F20"/>
<path d="M126.955 28.9588L134.141 16.8433L138.086 17.8463L131.746 25.1296L126.955 28.9588Z" fill="#75A603"/>
<path d="M126.746 28.8367L133.941 16.7211L134.036 16.5641L134.211 16.6077L138.156 17.6108L138.539 17.7067L138.278 18.0033L131.937 25.2866L131.902 25.3128L127.112 29.142L126.746 28.8367ZM134.263 17.1223L127.852 27.9295L131.58 24.9464L137.642 17.9771L134.263 17.1223Z" fill="#231F20"/>
<path d="M127.548 7.62352L125.222 5.99241L127.391 4.5532L123.82 5.34695L120.675 2.58191C132.469 2.90464 135.839 1.02058 144.601 9.70821C139.262 5.34695 133.636 6.00986 127.548 7.62352Z" fill="#99D420"/>
<path d="M127.243 7.71072L125.083 6.193L124.786 5.98366L125.083 5.78304L126.145 5.07652L123.872 5.58242L123.75 5.60859L123.654 5.53009L120.51 2.76505L120.675 2.33765C122.748 2.38998 124.56 2.38126 126.18 2.37254C133.88 2.32892 137.468 2.30276 144.758 9.53372L144.828 9.682L145.141 13.1797L145.185 13.7205L144.75 13.4065L144.68 13.3542L144.898 13.2059L144.584 9.70817C144.114 9.32438 143.626 8.96676 143.121 8.64403C136.815 2.79994 133.27 2.82611 126.18 2.86972C124.734 2.87844 123.132 2.88717 121.329 2.85228L123.872 5.08524L127.321 4.31766L127.513 4.76251L125.64 6.0011L127.844 7.54499L127.243 7.71072Z" fill="#231F20"/>
<path d="M150.759 17.1485C142.468 22.696 141.405 22.6785 131.746 25.1383L138.086 17.855L144.915 13.2146L149.235 14.4881L150.759 17.1485Z" fill="#99DEF9"/>
<path d="M150.899 17.3491C143.199 22.4954 141.71 22.8705 133.871 24.8505L131.807 25.3738L131.563 24.9726L137.904 17.6893L137.956 17.6457L144.784 13.0053L144.88 12.9442L144.993 12.9791L149.314 14.2439L149.453 14.3573L150.977 17.0264L151.09 17.227L150.899 17.3491ZM133.758 24.3707C141.457 22.4256 142.981 22.0418 150.437 17.07L149.07 14.6887L144.959 13.4763L138.252 18.0295L132.442 24.7022L133.758 24.3707Z" fill="#231F20"/>
<path d="M134.141 16.8431L128.27 14.8631L129.699 12.1504L126.798 14.1391L124.961 13.232L126.276 10.9641L123.794 12.5255L117.636 10.371C127.669 8.05954 136.475 3.07026 144.601 9.71682L144.915 13.2145L138.086 17.8549L134.141 16.8431Z" fill="#75A603"/>
<path d="M134.062 17.0787L128.192 15.0987L127.922 15.0027L128.061 14.7498L129.028 12.9093L126.947 14.3398L126.825 14.4183L126.694 14.3573L124.856 13.4501L124.621 13.3367L124.752 13.11L125.57 11.7056L123.933 12.7349L123.828 12.7959L123.715 12.7611L117.557 10.6066L117.583 10.1356C119.682 9.65584 121.729 9.05399 123.724 8.46086C131.336 6.2279 138.235 4.19555 144.758 9.52501L144.837 9.58606L144.845 9.69073L145.159 13.1885L145.168 13.328L145.046 13.4065L138.217 18.0469L138.121 18.108L138.017 18.0818L134.071 17.0787H134.062ZM128.619 14.7236L134.202 16.6077L138.034 17.5846L144.654 13.0838L144.366 9.83902C138.06 4.75379 131.301 6.74253 123.855 8.93188C122.113 9.4465 120.327 9.96986 118.507 10.4147L123.767 12.2552L126.154 10.7549L126.494 11.0863L125.309 13.1274L126.781 13.8514L129.559 11.9411L129.917 12.2552L128.619 14.7236Z" fill="#231F20"/>
<path d="M144.61 9.71688C148.477 4.8846 149.793 4.15191 155.959 3.95129L155.236 9.39414C153.851 12.6564 153.52 14.9678 150.768 17.1485L149.244 14.4794L144.924 13.2146L144.61 9.71688Z" fill="#FFB800"/>
<path d="M144.419 9.55984C146.37 7.11753 147.693 5.70449 149.314 4.87585C150.934 4.04721 152.832 3.80298 155.95 3.70703H155.959H156.238L156.203 3.98615L155.48 9.429L155.463 9.49006C155.184 10.153 154.923 10.8333 154.67 11.505C153.808 13.7815 153.128 15.5958 150.925 17.3316L150.698 17.506L150.559 17.2618L149.078 14.68L144.854 13.4414L144.697 13.3977L144.68 13.232L144.366 9.73429L144.419 9.55984ZM149.531 5.31197C148.007 6.097 146.735 7.44899 144.863 9.78662L145.15 13.014L149.305 14.2351L149.444 14.3485L150.829 16.7646C152.745 15.1684 153.39 13.4588 154.2 11.3305C154.435 10.7025 154.688 10.0309 154.992 9.32433L155.68 4.20421C152.797 4.30888 151.029 4.54439 149.531 5.31197Z" fill="#231F20"/>
<path d="M152.632 5.05911C152.144 5.02422 151.726 5.38185 151.683 5.87031C151.648 6.35877 152.005 6.77745 152.493 6.82106C152.98 6.85595 153.398 6.49833 153.442 6.00987C153.477 5.52141 153.12 5.10272 152.632 5.05911Z" fill="#231F20"/>
<path d="M155.228 9.39417L164.826 0.226807L155.95 3.95132L155.228 9.39417Z" fill="#FF690A"/>
<path d="M155.567 8.73124L163.702 0.959477L156.186 4.11703L155.567 8.73124ZM165 0.401236L155.402 9.5686L154.992 9.35926L155.715 3.91641L155.733 3.77685L155.863 3.72451L164.73 0L165 0.401236Z" fill="#231F20"/>
</g>
<defs>
<clipPath id="clip0_464_10271">
<rect width="165" height="48" fill="white"/>
</clipPath>
</defs>
</svg>
