<svg width="238" height="36" viewBox="0 0 238 36" fill="none" xmlns="http://www.w3.org/2000/svg">
<g clip-path="url(#clip0_464_10251)">
<path fill-rule="evenodd" clip-rule="evenodd" d="M156.865 14.0148V11.1509H151.114V1.86816L147.795 3.77743V11.1496H144.915V14.0135H147.795V30.1207C147.795 34.0786 149.343 35.5358 152.22 35.5358C153.99 35.5358 155.23 35.2613 156.511 34.7136L156.734 31.7582C155.672 32.2116 154.786 32.4383 153.459 32.4383C151.686 32.4383 151.114 31.7132 151.114 29.5731V14.0148H156.865ZM173.118 11.2397C172.321 10.8764 171.217 10.647 169.489 10.647C167.012 10.647 164.797 12.1971 163.735 14.1063V11.1509H160.415V35.0359H163.735V21.021C163.735 16.4704 165.552 13.7895 168.782 13.7895C170.33 13.7895 171.35 14.1541 172.276 14.6991L173.118 11.2397ZM190.621 35.0359V18.3824C190.621 12.8308 187.479 10.6456 182.474 10.6456C179.464 10.6456 176.723 11.4213 174.685 12.5576L175.925 15.3341C177.827 14.1965 179.819 13.5136 182.254 13.5136C185.662 13.5136 187.299 15.244 187.299 18.7921V21.611C185.929 20.838 183.847 20.248 181.503 20.248C176.898 20.248 172.606 22.5205 172.606 27.8905C172.606 33.6675 176.411 35.5358 180.042 35.5358C183.361 35.5358 185.662 33.9434 187.299 32.1215V35.0346H190.621V35.0359ZM187.299 29.1675C185.884 31.1682 183.627 32.7607 180.617 32.7607C177.785 32.7607 175.88 31.2133 175.88 27.6638C175.88 24.6633 177.918 22.9794 181.325 22.9794C184.157 22.9794 185.797 23.4779 187.299 24.3451V29.1675ZM211.921 11.1509H208.469L202.535 29.9377L202.182 31.0767L201.826 29.9377L195.897 11.1509H192.356L200.678 35.0359H203.599L211.921 11.1509ZM231.373 22.3867C231.373 15.5608 228.096 10.647 222.034 10.647C216.499 10.647 212.424 15.3792 212.424 22.9794C212.424 32.3523 217.603 35.5372 221.856 35.5372C225.353 35.5372 227.387 34.5825 230.178 32.7607L228.627 30.301C226.503 31.7596 224.908 32.5763 222.209 32.5763C218.401 32.5763 216.054 29.3464 215.746 24.2509H231.237C231.328 23.7073 231.373 23.2047 231.373 22.3867ZM228.276 21.4771H215.748C216.145 16.1536 218.538 13.6065 221.987 13.6065C226.064 13.6065 228.005 16.8364 228.276 21.4771ZM238.197 35.0359V1.86816L234.878 3.77743V35.0359H238.197Z" fill="#279CDB"/>
<path fill-rule="evenodd" clip-rule="evenodd" d="M29.5676 0.253906H20.5214V20.3518C20.5214 24.9502 19.306 28.8506 14.6859 28.8506C10.0658 28.8506 8.85044 24.9515 8.85044 20.3518V0.253906H-0.197113V21.9005C-0.197113 31.4469 5.83504 35.7475 14.6859 35.7475C23.5395 35.7475 29.5676 31.4482 29.5676 21.9005V0.253906ZM31.274 35.1452H40.0286V24.1471C40.0286 18.5504 41.8774 16.002 45.4761 16.002C47.8594 16.002 49.5142 17.6518 49.5142 22.5492V35.1452H58.2688V18.9028C58.2688 13.5014 55.4949 8.50146 48.5891 8.50146C44.6025 8.50146 41.1002 10.1526 39.349 13.9015H39.2513V9.10238H31.2754V35.1452H31.274ZM61.0495 35.1452H69.8041V9.10375H61.0495V35.1452ZM73.5059 9.50937V25.969C73.5059 32.168 75.1146 35.7475 82.9482 35.7475C85.1361 35.7475 86.7896 35.4457 88.4418 35.2463L88.1502 29.3997C87.2739 29.5485 86.3515 29.7493 85.4739 29.7493C82.7026 29.7493 81.9715 28.1487 81.9715 25.0007V15.4024H88.1027V9.10375H81.9729V0.505196L73.3661 3.25711L73.5059 9.50937ZM97.3089 19.6525C97.5056 16.6507 99.014 14.2006 102.173 14.2006C105.676 14.2006 107.036 16.6493 107.036 19.6525H97.3089ZM114.916 24.7494V23.0982C114.916 15.3505 111.512 8.50146 102.126 8.50146C94.2447 8.50146 88.5584 13.5014 88.5584 22.1013C88.5584 30.6985 94.9284 35.7475 103.291 35.7475C106.552 35.7475 109.761 35.2463 112.581 34.0964V27.7485C110.211 29.0569 107.552 29.7449 104.848 29.7493C100.567 29.7493 97.8949 28.3494 97.408 24.7508H114.916V24.7494Z" fill="#323B6D"/>
<path fill-rule="evenodd" clip-rule="evenodd" d="M123.627 21.8471C123.627 18.4014 125.52 15.4023 128.925 15.4023C132.136 15.4023 134.276 18.2512 134.276 22.1995C134.276 26.0003 131.847 28.8492 128.925 28.8492C125.617 28.8492 123.627 26.0003 123.627 21.8471ZM143.031 0.52832H134.228V12.4524C131.893 9.45055 128.927 8.5 125.427 8.5C118.421 8.5 114.581 15.2507 114.581 21.6478C114.581 29.3436 118.615 35.7447 126.155 35.7447C130.193 35.7447 133.743 33.3943 134.861 30.4949L134.959 35.141H143.031V0.52832Z" fill="#323B6D"/>
<path fill-rule="evenodd" clip-rule="evenodd" d="M61.1119 7.66423L69.9804 7.62053V3.96313L61.1119 7.036V7.66423Z" fill="#323B6D"/>
</g>
<defs>
<clipPath id="clip0_464_10251">
<rect width="238" height="36" fill="white"/>
</clipPath>
</defs>
</svg>
